<?xml version="1.0" standalone="no"?>
<!DOCTYPE svg PUBLIC "-//W3C//DTD SVG 20010904//EN"
 "http://www.w3.org/TR/2001/REC-SVG-20010904/DTD/svg10.dtd">
<svg version="1.0" xmlns="http://www.w3.org/2000/svg"
 width="512.000000pt" height="512.000000pt" viewBox="0 0 512.000000 512.000000"
 preserveAspectRatio="xMidYMid meet">

<g transform="translate(0.000000,512.000000) scale(0.100000,-0.100000)"
fill="#000000" stroke="none">
<path d="M1640 4843 c-205 -15 -451 -71 -610 -138 -422 -178 -650 -511 -737
-1075 -16 -104 -18 -204 -18 -1070 0 -869 2 -965 18 -1070 115 -735 468 -1088
1202 -1197 109 -16 208 -18 1070 -18 1049 0 1044 0 1303 66 490 125 790 427
912 916 63 253 63 261 67 1047 3 542 1 726 -8 748 -27 65 -116 108 -187 89
-46 -13 -99 -65 -112 -112 -6 -18 -10 -143 -10 -277 l0 -244 -41 34 c-90 74
-148 109 -229 139 -162 59 -342 49 -495 -28 -84 -42 -57 -20 -595 -482 -239
-205 -451 -381 -472 -392 -78 -40 -209 -40 -286 0 -20 11 -66 44 -102 75 -198
169 -458 212 -682 113 -32 -14 -263 -164 -514 -333 -338 -226 -458 -303 -465
-293 -10 17 -36 161 -49 274 -14 124 -13 1748 1 1891 63 653 360 950 1013
1013 62 6 341 11 646 11 536 0 536 0 580 23 66 33 93 78 88 148 -5 65 -32 109
-82 133 -30 14 -96 16 -598 14 -309 -1 -583 -3 -608 -5z m2530 -2470 c25 -11
116 -80 204 -154 l158 -134 -5 -245 c-5 -250 -18 -364 -56 -512 -118 -455
-417 -677 -981 -728 -86 -8 -399 -10 -1015 -7 -864 4 -893 4 -1004 25 -200 38
-351 94 -468 172 -97 66 -238 221 -217 239 5 5 221 150 481 324 515 345 534
355 645 343 73 -7 131 -34 199 -93 123 -105 229 -155 366 -172 144 -18 305 18
420 94 28 19 258 212 511 429 253 217 471 400 484 407 79 43 197 48 278 12z"/>
<path d="M4186 4829 c-32 -11 -82 -35 -110 -53 -62 -41 -894 -875 -928 -931
-13 -22 -32 -58 -40 -81 -24 -59 -71 -398 -65 -460 14 -134 127 -247 261 -261
30 -3 126 6 236 22 293 42 244 9 748 509 233 232 444 449 469 484 109 152 122
317 36 485 -30 60 -158 195 -224 238 -108 69 -264 89 -383 48z m193 -313 c37
-21 128 -115 141 -147 20 -48 4 -96 -52 -155 l-51 -54 -38 22 c-61 34 -135
104 -179 170 l-41 61 38 40 c71 74 127 93 182 63z m-335 -472 c45 -44 95 -90
111 -102 l30 -21 -250 -250 c-137 -138 -261 -255 -275 -260 -14 -6 -85 -19
-157 -29 l-133 -19 0 21 c0 12 7 77 16 146 l17 125 261 263 261 262 19 -27
c11 -16 56 -64 100 -109z"/>
<path d="M1795 3986 c-267 -62 -458 -296 -459 -566 -1 -165 54 -301 169 -416
116 -117 252 -174 413 -174 165 0 295 54 412 170 120 119 175 253 174 420 -2
246 -159 465 -393 546 -92 32 -227 40 -316 20z m241 -334 c52 -27 118 -99 135
-148 30 -88 8 -197 -55 -271 -82 -97 -251 -111 -358 -30 -86 66 -124 196 -89
301 23 68 103 142 181 167 41 14 142 3 186 -19z"/>
</g>
</svg>
