<?xml version="1.0" standalone="no"?>
<!DOCTYPE svg PUBLIC "-//W3C//DTD SVG 20010904//EN"
 "http://www.w3.org/TR/2001/REC-SVG-20010904/DTD/svg10.dtd">
<svg version="1.0" xmlns="http://www.w3.org/2000/svg"
 width="512.000000pt" height="512.000000pt" viewBox="0 0 512.000000 512.000000"
 preserveAspectRatio="xMidYMid meet">

<g transform="translate(0.000000,512.000000) scale(0.100000,-0.100000)"
fill="#000000" stroke="none">
<path d="M171 5103 c-26 -9 -65 -36 -91 -62 -87 -87 -80 100 -80 -2050 0
-1266 4 -1918 10 -1943 19 -68 70 -130 134 -163 l60 -30 768 -3 768 -3 -85
-169 -85 -170 -173 0 c-159 0 -176 -2 -222 -24 -94 -43 -148 -129 -148 -231 1
-99 43 -171 132 -223 l46 -27 1355 0 1355 0 46 27 c89 52 131 124 132 223 0
102 -54 188 -148 231 -46 22 -63 24 -222 24 l-173 0 -85 170 -85 169 768 3
768 3 60 30 c64 33 115 95 134 163 6 25 10 677 10 1943 0 2150 7 1963 -80
2049 -87 88 156 80 -2484 79 -2100 0 -2346 -2 -2385 -16z m4724 -165 c57 -26
55 7 55 -923 l0 -855 -2390 0 -2390 0 0 858 c1 919 -1 889 51 918 34 19 4634
21 4674 2z m55 -2673 l0 -725 -2390 0 -2390 0 0 725 0 725 2390 0 2390 0 0
-725z m-2 -1037 l3 -137 -30 -33 -29 -33 -2332 0 -2332 0 -29 33 c-29 32 -29
32 -29 165 0 74 3 137 7 140 3 4 1078 6 2387 5 l2381 -3 3 -137z m-1673 -548
l85 -170 -800 0 -800 0 85 170 85 170 630 0 630 0 85 -170z m619 -362 c38 -35
39 -86 1 -123 l-24 -25 -1311 0 -1311 0 -24 25 c-38 37 -37 88 1 123 l25 22
1309 0 1309 0 25 -22z"/>
<path d="M2795 4666 c-55 -25 -110 -81 -131 -132 -21 -50 -20 -996 1 -1047 35
-85 119 -146 214 -154 77 -7 124 9 242 85 52 32 211 132 354 221 150 94 276
179 297 202 92 100 86 264 -14 356 -27 25 -657 422 -737 465 -70 37 -153 39
-226 4z m493 -368 c195 -123 361 -233 370 -246 12 -18 13 -32 6 -60 -9 -35
-25 -47 -369 -264 -389 -245 -403 -251 -450 -203 l-25 24 0 461 0 461 25 24
c47 48 60 43 443 -197z"/>
<path d="M1305 4495 c-35 -34 -33 -78 4 -116 26 -26 36 -29 90 -29 80 0 109
12 126 54 16 39 12 60 -18 94 -18 19 -30 22 -99 22 -70 0 -82 -3 -103 -25z"/>
<path d="M1735 4495 c-27 -27 -33 -79 -12 -106 28 -37 50 -39 367 -39 373 0
380 2 380 95 0 24 -7 39 -26 54 -26 20 -38 21 -356 21 l-329 0 -24 -25z"/>
<path d="M1164 4090 c-55 -22 -70 -95 -29 -135 21 -22 33 -25 103 -25 69 0 81
3 100 23 23 25 29 75 12 107 -18 35 -130 53 -186 30z"/>
<path d="M1600 4093 c-61 -23 -81 -100 -37 -141 23 -22 28 -22 358 -22 l336 0
21 23 c31 33 29 87 -4 118 l-26 24 -316 2 c-174 1 -324 -1 -332 -4z"/>
<path d="M1309 3641 c-31 -31 -36 -59 -17 -94 20 -38 40 -46 115 -47 61 0 76
3 99 24 38 32 38 90 -1 123 -22 19 -38 23 -96 23 -65 0 -73 -2 -100 -29z"/>
<path d="M1755 3659 c-52 -29 -62 -93 -20 -134 l24 -25 331 0 331 0 24 25 c31
30 33 83 6 116 l-19 24 -329 2 c-227 2 -334 -1 -348 -8z"/>
<path d="M2094 2810 c-44 -10 -91 -45 -112 -83 -13 -25 -17 -56 -17 -137 0
-102 3 -116 43 -192 2 -5 -322 -8 -720 -8 -683 0 -725 -1 -764 -19 -23 -10
-52 -34 -65 -52 -23 -32 -24 -42 -24 -186 0 -166 4 -179 69 -227 27 -21 37
-21 826 -24 l798 -2 4 -60 c3 -45 10 -66 28 -85 29 -31 77 -33 113 -5 22 18
26 30 29 83 l3 62 1142 5 c1133 5 1142 5 1169 26 65 48 69 61 69 227 0 144 -1
154 -24 186 -13 18 -42 42 -65 52 -39 18 -89 19 -1107 19 l-1066 0 23 47 c21
40 24 61 24 152 0 90 -3 111 -21 140 -28 46 -56 68 -106 80 -47 12 -201 13
-249 1z m206 -230 c0 -69 -1 -72 -40 -113 l-39 -42 -42 42 c-37 37 -43 48 -47
97 -7 84 -5 86 88 86 l80 0 0 -70z m-932 -447 l3 -83 -386 0 -385 0 0 85 0 85
383 -2 382 -3 3 -82z m762 2 l0 -85 -295 0 -295 0 0 85 0 85 295 0 295 0 0
-85z m1030 0 l0 -85 -430 0 -430 0 0 85 0 85 430 0 430 0 0 -85z m1360 0 l0
-85 -595 0 -595 0 0 85 0 85 595 0 595 0 0 -85z"/>
</g>
</svg>
